<svg width="715" height="715" viewBox="0 0 715 715" fill="none" xmlns="http://www.w3.org/2000/svg">
<path d="M378.354 455.812L455.812 378.354C461.274 372.892 464.005 365.941 464.005 357.5C464.005 349.059 461.274 342.108 455.812 336.646L377.609 258.443C372.147 252.981 365.315 250.369 357.113 250.607C348.91 250.846 342.088 253.706 336.646 259.187C331.184 264.649 328.453 271.601 328.453 280.042C328.453 288.483 331.184 295.434 336.646 300.896L363.458 327.708H267.38C258.939 327.708 251.988 330.568 246.526 336.288C241.064 342.008 238.333 349.079 238.333 357.5C238.333 365.941 241.193 373.021 246.913 378.741C252.633 384.461 259.704 387.312 268.125 387.292H363.458L335.901 414.849C330.439 420.311 327.827 427.143 328.066 435.346C328.304 443.548 331.164 450.371 336.646 455.812C342.108 461.274 349.059 464.005 357.5 464.005C365.941 464.005 372.892 461.274 378.354 455.812ZM357.5 655.417C316.288 655.417 277.559 647.591 241.312 631.941C205.066 616.29 173.536 595.069 146.724 568.276C119.911 541.464 98.6898 509.934 83.0591 473.687C67.4284 437.441 59.6031 398.712 59.5833 357.5C59.5833 316.288 67.4085 277.559 83.0591 241.312C98.7096 205.066 119.931 173.536 146.724 146.724C173.536 119.911 205.066 98.6898 241.312 83.0591C277.559 67.4285 316.288 59.6032 357.5 59.5833C398.712 59.5833 437.441 67.4086 473.687 83.0591C509.934 98.7097 541.463 119.931 568.276 146.724C595.088 173.536 616.32 205.066 631.971 241.312C647.621 277.559 655.436 316.288 655.417 357.5C655.417 398.712 647.591 437.441 631.941 473.687C616.29 509.934 595.069 541.464 568.276 568.276C541.463 595.089 509.934 616.32 473.687 631.971C437.441 647.621 398.712 655.436 357.5 655.417Z" fill="white"/>
</svg>
